<?xml version="1.0" encoding="UTF-8"?>
<svg version="1.1" xmlns="http://www.w3.org/2000/svg" width="400" height="400">
<path d="M0 0 C132 0 264 0 400 0 C400 132 400 264 400 400 C268 400 136 400 0 400 C0 268 0 136 0 0 Z " fill="#000000" transform="translate(0,0)"/>
<path d="M0 0 C5.31741628 3.76989688 7.99584686 6.9020241 9.78515625 13.265625 C9.96960764 15.69014999 10.05304203 18.12339302 10.06362915 20.55490112 C10.06942155 21.26648223 10.07521395 21.97806334 10.08118188 22.71120751 C10.09811789 25.08339719 10.10105282 27.45539157 10.10400391 29.82763672 C10.11330651 31.53293837 10.12347568 33.23823548 10.13444519 34.94352722 C10.16172179 39.56491574 10.17688769 44.18627381 10.18987322 48.80772161 C10.20551397 53.64041475 10.2323012 58.47304581 10.25790405 63.30569458 C10.30467509 72.45341575 10.34142733 81.60114862 10.37457693 90.74892819 C10.41281013 101.16486885 10.46221717 111.58074713 10.51256108 121.9966352 C10.61585603 143.41958573 10.70512439 164.84257576 10.78515625 186.265625 C11.73197266 185.37939453 12.67878906 184.49316406 13.65429688 183.58007812 C14.91658458 182.40225577 16.17895897 181.22452632 17.44140625 180.046875 C18.37388184 179.17337402 18.37388184 179.17337402 19.32519531 178.28222656 C22.87853521 174.97137181 26.48507112 171.79557062 30.28515625 168.765625 C35.97569703 164.20983016 41.24748035 159.25815473 46.5625 154.27734375 C68.49086802 133.72939278 68.49086802 133.72939278 77.70703125 134.01953125 C84.18505264 134.78666536 89.44969543 138.58698786 93.78515625 143.265625 C96.09296152 147.07885291 96.50817333 150.896425 95.78515625 155.265625 C93.69055254 160.65279875 90.49828927 163.82199446 86.28515625 167.578125 C85.65859131 168.14861572 85.03202637 168.71910645 84.38647461 169.30688477 C79.95174467 173.31253835 75.36213171 177.092138 70.6953125 180.82421875 C66.41894268 184.41177733 62.4023788 188.26138152 58.34985352 192.09765625 C53.77063242 196.40916543 49.04446165 200.39900319 44.12890625 204.32421875 C41.44843414 206.54454315 39.0711726 208.94937725 36.66015625 211.453125 C34.31913652 213.71611073 31.82201494 215.72510823 29.28515625 217.765625 C25.43340416 220.86594387 21.88080995 224.05279914 18.44140625 227.59765625 C15.38647501 230.67420257 12.08410792 233.45623108 8.78515625 236.265625 C8.30288574 236.68344238 7.82061523 237.10125977 7.32373047 237.53173828 C5.7336676 238.90867451 4.13530376 240.27542847 2.53515625 241.640625 C1.54 242.49398437 0.54484375 243.34734375 -0.48046875 244.2265625 C-4.3861398 247.1390772 -7.30830913 247.42625052 -12.08984375 247.515625 C-13.32347656 247.55429687 -13.32347656 247.55429687 -14.58203125 247.59375 C-21.65637241 246.71208137 -26.09081019 241.87943065 -30.96484375 237.140625 C-32.38863637 235.78053093 -33.81311366 234.42115324 -35.23828125 233.0625 C-36.26453613 232.07926758 -36.26453613 232.07926758 -37.31152344 231.07617188 C-41.19621913 227.38082769 -45.21143739 223.83105186 -49.21484375 220.265625 C-50.86160532 218.78749181 -52.50741793 217.30830081 -54.15234375 215.828125 C-54.97347656 215.08949219 -55.79460937 214.35085938 -56.640625 213.58984375 C-59.3814508 211.1151983 -62.11105195 208.62853035 -64.83984375 206.140625 C-67.89616324 203.35749608 -70.96441623 200.59582697 -74.08984375 197.890625 C-78.29146018 194.24230785 -82.3575335 190.45183476 -86.43701172 186.66845703 C-89.32831015 183.99176353 -92.23365051 181.34258865 -95.21484375 178.765625 C-98.84154265 175.62609461 -102.37566571 172.39147347 -105.90234375 169.140625 C-106.44955078 168.63724609 -106.99675781 168.13386719 -107.56054688 167.61523438 C-118.03171184 157.9348273 -118.03171184 157.9348273 -118.453125 154.09375 C-118.62171234 148.23755826 -118.24979604 144.83149206 -114.21484375 140.265625 C-109.69508254 135.92287793 -106.20204186 134.1201843 -99.90234375 134.015625 C-98.51595703 133.97695313 -98.51595703 133.97695313 -97.1015625 133.9375 C-91.05033776 134.62532528 -87.14716501 137.94830111 -82.83984375 142.015625 C-81.88207031 142.90894531 -80.92429688 143.80226562 -79.9375 144.72265625 C-78.58978516 145.98142578 -78.58978516 145.98142578 -77.21484375 147.265625 C-75.90869361 148.41869138 -74.59688103 149.56540287 -73.27734375 150.703125 C-69.32817008 154.13331076 -65.4846207 157.67566018 -61.63696289 161.21850586 C-58.25561518 164.32665647 -54.82780949 167.3695286 -51.35546875 170.375 C-47.99471923 173.34325323 -44.70878538 176.39340518 -41.42578125 179.44726562 C-38.78743956 181.88668473 -36.10658224 184.13657675 -33.21484375 186.265625 C-33.21945271 185.37624992 -33.22406168 184.48687485 -33.22881031 183.57054901 C-33.33927893 161.92034862 -33.42199525 140.27019687 -33.47390461 118.61977386 C-33.49967548 108.1497332 -33.53480476 97.67988077 -33.59204102 87.20996094 C-33.64191006 78.08332838 -33.67414289 68.95683218 -33.68528622 59.83006716 C-33.69179903 54.99839173 -33.70708279 50.16710633 -33.74349403 45.33555603 C-33.7775088 40.78500506 -33.78788566 36.23500365 -33.78038216 31.68433762 C-33.78175426 30.01705816 -33.79165426 28.34975975 -33.81087112 26.68259048 C-33.98695636 10.61390434 -33.98695636 10.61390434 -28.21484375 4.265625 C-27.59609375 3.5025 -26.97734375 2.739375 -26.33984375 1.953125 C-18.68365787 -4.12678732 -8.4979912 -4.95570739 0 0 Z " fill="#FAFAFA" transform="translate(212.21484375,48.734375)"/>
<path d="M0 0 C0.77520811 -0.00453111 1.55041622 -0.00906223 2.34911549 -0.01373065 C4.94301975 -0.02637654 7.5367141 -0.02475417 10.13064575 -0.02310181 C11.99192576 -0.02908691 13.85320328 -0.03589242 15.71447754 -0.04345703 C20.76822257 -0.06112537 25.82189988 -0.06581275 30.87567282 -0.0670886 C34.03348717 -0.06851021 37.19128431 -0.07277997 40.34909439 -0.07808304 C51.36678409 -0.09658558 62.3844254 -0.10475331 73.40213013 -0.10317993 C83.67059197 -0.10197824 93.93884371 -0.12308541 104.20725238 -0.15466726 C113.02523407 -0.18082123 121.84314709 -0.19154761 130.66116726 -0.19026911 C135.92691567 -0.18975925 141.19247734 -0.19545597 146.4581871 -0.21662521 C151.41095396 -0.23599289 156.36335565 -0.23614207 161.31613541 -0.22159195 C163.13216943 -0.21950098 164.94822622 -0.2242219 166.76422119 -0.23631287 C169.24705107 -0.25177089 171.72862262 -0.24245436 174.21142578 -0.22705078 C174.92690547 -0.23733791 175.64238516 -0.24762503 176.37954605 -0.25822389 C181.82438786 -0.18377837 184.8326485 1.29046747 189.23269653 4.26742554 C194.39011266 9.83200609 194.43915793 14.36884408 194.48269653 21.57992554 C194.51363403 22.84352905 194.51363403 22.84352905 194.54519653 24.13265991 C194.58709363 30.83095784 193.27826231 34.96616403 188.73269653 40.07992554 C184.60872442 43.68840114 180.79409151 43.41589758 175.58528137 43.41459656 C174.79882589 43.41827325 174.0123704 43.42194993 173.20208293 43.42573804 C170.55822817 43.43677974 167.91441271 43.44061952 165.27053833 43.44442749 C163.37837601 43.4506917 161.48621491 43.45733846 159.59405518 43.46434021 C154.44730417 43.48175206 149.30056245 43.49230218 144.15378928 43.50054574 C140.93938075 43.50569483 137.72497511 43.51177056 134.51056862 43.51805687 C124.4565545 43.53710828 114.40254773 43.55134031 104.34851903 43.55966884 C92.73674904 43.56944626 81.12516942 43.59577922 69.51346654 43.63616973 C60.54183497 43.66630795 51.57025806 43.68113548 42.59857684 43.68444985 C37.23836342 43.68680267 31.87835339 43.69579348 26.5181942 43.72091103 C21.47601043 43.74415701 16.43416449 43.74843894 11.39194107 43.73814964 C9.54161901 43.73765335 7.69128051 43.74400124 5.84100914 43.75770569 C3.31395417 43.77537533 0.7881181 43.76834332 -1.73893738 43.75517273 C-2.8360818 43.7716266 -2.8360818 43.7716266 -3.95539075 43.78841287 C-9.02186402 43.72470331 -11.84880432 42.4193639 -15.76730347 39.26742554 C-20.85503178 33.76717872 -20.96727054 29.17221707 -21.01730347 21.89242554 C-21.03792847 21.14992554 -21.05855347 20.40742554 -21.07980347 19.64242554 C-21.12422579 13.35666673 -19.56582843 9.34992813 -15.39230347 4.51742554 C-10.56957239 0.38365604 -6.18054379 -0.02658885 0 0 Z " fill="#FDFDFD" transform="translate(113.76730346679688,309.7325744628906)"/>
<path d="M0 0 C3.90650325 2.37787154 6.03256 3.92458858 8 8 C10.05000871 8.80528889 10.05000871 8.80528889 12 9 C12.33 10.98 12.66 12.96 13 15 C12.01 15.495 12.01 15.495 11 16 C10.50371094 15.56429687 10.00742188 15.12859375 9.49609375 14.6796875 C5.02180981 10.75726021 0.52435958 6.86455714 -4 3 C-2.68 2.01 -1.36 1.02 0 0 Z " fill="#F0F0F0" transform="translate(120,224)"/>
<path d="M0 0 C-0.350625 1.11375 -0.70125 2.2275 -1.0625 3.375 C-2.37239331 6.80264476 -2.37239331 6.80264476 -1 9 C-2.9375 9.5625 -2.9375 9.5625 -5 10 C-5.33 9.67 -5.66 9.34 -6 9 C-6.66 9.66 -7.32 10.32 -8 11 C-8.99 11 -9.98 11 -11 11 C-13.18777466 12.9375006 -13.18777466 12.9375006 -15 15 C-15 12 -15 12 -12.91796875 9.84375 C-12.01691406 9.0703125 -11.11585938 8.296875 -10.1875 7.5 C-6.64150601 4.46741661 -6.64150601 4.46741661 -3.30078125 1.21875 C-2 0 -2 0 0 0 Z " fill="#0F0F0F" transform="translate(310,206)"/>
<path d="M0 0 C4.65053171 1.36780345 8.23321023 4.02571092 11 8 C11 9.32 11 10.64 11 12 C7.125 10.25 7.125 10.25 6 8 C4.02111039 7.27306096 2.02045442 6.60183749 0 6 C0 4 0 2 0 0 Z " fill="#F0F0F0" transform="translate(209,48)"/>
<path d="M0 0 C1.32 0.66 2.64 1.32 4 2 C1.03 4.64 -1.94 7.28 -5 10 C-5.99 9.34 -6.98 8.68 -8 8 C-7.3125 5.5625 -7.3125 5.5625 -6 3 C-3.4375 2.3125 -3.4375 2.3125 -1 2 C-0.67 1.34 -0.34 0.68 0 0 Z " fill="#EFEFEF" transform="translate(248,255)"/>
<path d="M0 0 C0.66 0.33 1.32 0.66 2 1 C1.34 2.98 0.68 4.96 0 7 C-0.66 7 -1.32 7 -2 7 C-2.33 7.66 -2.66 8.32 -3 9 C-4.65 9 -6.3 9 -8 9 C-6.4169423 4.7257442 -3.49431596 2.73468206 0 0 Z " fill="#060606" transform="translate(229,277)"/>
<path d="M0 0 C2.31 1.65 4.62 3.3 7 5 C6.01 5.495 6.01 5.495 5 6 C4.67 6.66 4.34 7.32 4 8 C-1.875 4.25 -1.875 4.25 -3 2 C-2.01 1.34 -1.02 0.68 0 0 Z " fill="#131313" transform="translate(157,264)"/>
<path d="M0 0 C3.465 1.485 3.465 1.485 7 3 C5.515 5.475 5.515 5.475 4 8 C1.69 6.35 -0.62 4.7 -3 3 C-2.01 2.01 -1.02 1.02 0 0 Z " fill="#131313" transform="translate(128,185)"/>
<path d="M0 0 C0.33 0.66 0.66 1.32 1 2 C1.66 2 2.32 2 3 2 C1.70191542 4.59616917 0.23343204 6.14944202 -2 8 C-3.32 7.67 -4.64 7.34 -6 7 C-4.02 4.69 -2.04 2.38 0 0 Z " fill="#EDEDED" transform="translate(245,215)"/>
<path d="M0 0 C1.98 1.65 3.96 3.3 6 5 C5.01 5.99 4.02 6.98 3 8 C2.566875 7.505 2.13375 7.01 1.6875 6.5 C0.00259517 4.66781808 0.00259517 4.66781808 -3 5 C-2.01 3.35 -1.02 1.7 0 0 Z " fill="#111111" transform="translate(131,240)"/>
<path d="M0 0 C0 3 0 3 -2.5 5.6875 C-3.325 6.450625 -4.15 7.21375 -5 8 C-5 5 -5 5 -2.5 2.3125 C-1.675 1.549375 -0.85 0.78625 0 0 Z M-8 7 C-7.34 7.33 -6.68 7.66 -6 8 C-8.97 10.475 -8.97 10.475 -12 13 C-10.84826645 10.53199953 -9.95216435 8.95216435 -8 7 Z " fill="#1C1C1C" transform="translate(271,239)"/>
<path d="M0 0 C1.15224028 0.92961422 2.29659176 1.8690125 3.4375 2.8125 C4.07558594 3.33457031 4.71367187 3.85664063 5.37109375 4.39453125 C7 6 7 6 8 9 C4.21304827 8.4590069 2.37254028 6.96567536 0 4 C0 2.68 0 1.36 0 0 Z " fill="#EEEEEE" transform="translate(169,227)"/>
<path d="M0 0 C1.65 0.33 3.3 0.66 5 1 C5 1.99 5 2.98 5 4 C2.5 5.6875 2.5 5.6875 0 7 C-1.33332095 4.3333581 -0.67102033 2.83319697 0 0 Z " fill="#131313" transform="translate(244,209)"/>
<path d="M0 0 C0.99 0.33 1.98 0.66 3 1 C3 1.99 3 2.98 3 4 C0.5 5.6875 0.5 5.6875 -2 7 C-3 4 -3 4 -2 1 C-1.34 0.67 -0.68 0.34 0 0 Z " fill="#F1F1F1" transform="translate(254,249)"/>
<path d="M0 0 C0.99 0.33 1.98 0.66 3 1 C0.6875 3.5 0.6875 3.5 -2 6 C-2.99 6 -3.98 6 -5 6 C-3.86525052 2.59575156 -3.03188696 1.78346291 0 0 Z " fill="#E8E8E8" transform="translate(274,233)"/>
<path d="M0 0 C0.66 0.66 1.32 1.32 2 2 C-0.97 4.475 -0.97 4.475 -4 7 C-4.33 5.35 -4.66 3.7 -5 2 C-4.360625 1.855625 -3.72125 1.71125 -3.0625 1.5625 C-1.02454854 1.18992819 -1.02454854 1.18992819 0 0 Z " fill="#121212" transform="translate(233,223)"/>
<path d="M0 0 C2.475 0.99 2.475 0.99 5 2 C4.34 3.32 3.68 4.64 3 6 C1.68 5.67 0.36 5.34 -1 5 C-0.67 3.35 -0.34 1.7 0 0 Z " fill="#E8E8E8" transform="translate(209,48)"/>
<path d="M0 0 C2.625 0.9375 2.625 0.9375 5 2 C4.34 3.32 3.68 4.64 3 6 C1.35 4.35 -0.3 2.7 -2 1 C-1.34 0.67 -0.68 0.34 0 0 Z " fill="#EEEEEE" transform="translate(146,250)"/>
<path d="M0 0 C0.2475 0.639375 0.495 1.27875 0.75 1.9375 C1.81562433 4.18741541 1.81562433 4.18741541 4.125 4.75 C4.74375 4.8325 5.3625 4.915 6 5 C4.68 5.99 3.36 6.98 2 8 C0.68 6.35 -0.64 4.7 -2 3 C-1.34 2.01 -0.68 1.02 0 0 Z " fill="#F1F1F1" transform="translate(134,237)"/>
<path d="M0 0 C0.66 0.33 1.32 0.66 2 1 C1.34 2.65 0.68 4.3 0 6 C-0.99 6 -1.98 6 -3 6 C-3.66 6.66 -4.32 7.32 -5 8 C-5 5 -5 5 -2.5 2.3125 C-1.675 1.549375 -0.85 0.78625 0 0 Z " fill="#E3E3E3" transform="translate(237,222)"/>
<path d="M0 0 C1.32 0.66 2.64 1.32 4 2 C1.69 3.65 -0.62 5.3 -3 7 C-3.1875 4.625 -3.1875 4.625 -3 2 C-2.01 1.34 -1.02 0.68 0 0 Z " fill="#181818" transform="translate(276,184)"/>
<path d="M0 0 C0.66 0.33 1.32 0.66 2 1 C-0.21928194 3.90802461 -1.92969143 5.95312762 -5 8 C-5 5 -5 5 -2.5 2.3125 C-1.675 1.549375 -0.85 0.78625 0 0 Z M-9 8 C-7 9 -7 9 -7 9 Z " fill="#1C1C1C" transform="translate(281,230)"/>
<path d="M0 0 C3.37705625 0.53725895 6.696686 1.11064623 10 2 C9.34 3.32 8.68 4.64 8 6 C7.608125 5.54625 7.21625 5.0925 6.8125 4.625 C4.69167513 2.72357081 2.66957765 1.93795972 0 1 C0 0.67 0 0.34 0 0 Z " fill="#171717" transform="translate(300,187)"/>
<path d="M0 0 C1.32 1.32 2.64 2.64 4 4 C3.67 4.99 3.34 5.98 3 7 C1.68 6.01 0.36 5.02 -1 4 C-0.67 2.68 -0.34 1.36 0 0 Z " fill="#0A0A0A" transform="translate(138,194)"/>
<path d="M0 0 C0.99 0 1.98 0 3 0 C2.67 1.32 2.34 2.64 2 4 C0.68 4 -0.64 4 -2 4 C-1.34 2.68 -0.68 1.36 0 0 Z " fill="#F3F3F3" transform="translate(302,344)"/>
<path d="M0 0 C0 3 0 3 -1 6 C-3.5625 7.1875 -3.5625 7.1875 -6 8 C-4.55746343 4.63408134 -2.66735273 2.48952921 0 0 Z " fill="#181818" transform="translate(227,278)"/>
<path d="M0 0 C-0.33 0.99 -0.66 1.98 -1 3 C-1.66 3 -2.32 3 -3 3 C-2.67 4.32 -2.34 5.64 -2 7 C-2.99 7.33 -3.98 7.66 -5 8 C-5.75 6.25 -5.75 6.25 -6 4 C-2.77777778 0 -2.77777778 0 0 0 Z " fill="#E7E7E7" transform="translate(229,231)"/>
<path d="M0 0 C0.66 0.66 1.32 1.32 2 2 C1.625 4.125 1.625 4.125 1 6 C-2.875 4.25 -2.875 4.25 -4 2 C-2.68 1.34 -1.36 0.68 0 0 Z " fill="#E1E1E1" transform="translate(120,224)"/>
<path d="M0 0 C0.66 0.33 1.32 0.66 2 1 C1.01 2.485 1.01 2.485 0 4 C-0.33 4.99 -0.66 5.98 -1 7 C-1.99 6.67 -2.98 6.34 -4 6 C-2.84826645 3.53199953 -1.95216435 1.95216435 0 0 Z " fill="#E6E6E6" transform="translate(253,208)"/>
<path d="M0 0 C0.33 0.99 0.66 1.98 1 3 C0.01 3.66 -0.98 4.32 -2 5 C-2 2 -2 2 0 0 Z M-5 4 C-4.34 4.33 -3.68 4.66 -3 5 C-3.99 5.99 -4.98 6.98 -6 8 C-6.66 7.67 -7.32 7.34 -8 7 C-7.01 6.01 -6.02 5.02 -5 4 Z " fill="#E0E0E0" transform="translate(277,187)"/>
<path d="M0 0 C0.66 0.33 1.32 0.66 2 1 C0.52307692 5.67692308 0.52307692 5.67692308 -2.125 7.3125 C-3.053125 7.6528125 -3.053125 7.6528125 -4 8 C-2.25 2.25 -2.25 2.25 0 0 Z " fill="#E8E8E8" transform="translate(184,53)"/>
<path d="M0 0 C0.99 0.99 1.98 1.98 3 3 C1.125 4.0625 1.125 4.0625 -1 5 C-1.66 4.67 -2.32 4.34 -3 4 C-2.67 3.01 -2.34 2.02 -2 1 C-1.34 0.67 -0.68 0.34 0 0 Z " fill="#121212" transform="translate(183,49)"/>
<path d="M0 0 C1.32 0.66 2.64 1.32 4 2 C2.7934375 2.433125 2.7934375 2.433125 1.5625 2.875 C-1.1326468 3.73262568 -1.1326468 3.73262568 -2 6 C-2.33 4.35 -2.66 2.7 -3 1 C-2.01 1.33 -1.02 1.66 0 2 C0 1.34 0 0.68 0 0 Z " fill="#1D1D1D" transform="translate(99,310)"/>
</svg>
